<svg width="400" height="130" viewBox="0 0 400 130" fill="none" xmlns="http://www.w3.org/2000/svg">
<path d="M130.27 106.16C129.52 106.16 128.82 106.03 128.18 105.78C127.54 105.52 126.98 105.17 126.51 104.7C126.04 104.24 125.67 103.7 125.41 103.07C125.15 102.45 125.02 101.77 125.02 101.02C125.02 100.27 125.15 99.6 125.41 98.97C125.67 98.35 126.04 97.81 126.52 97.34C127 96.88 127.55 96.52 128.19 96.26C128.83 96 129.52 95.88 130.27 95.88C130.98 95.88 131.65 96 132.27 96.23C132.89 96.46 133.42 96.81 133.87 97.28L133.41 97.76C132.98 97.34 132.5 97.03 131.97 96.84C131.44 96.65 130.89 96.56 130.3 96.56C129.65 96.56 129.05 96.67 128.5 96.89C127.95 97.11 127.46 97.43 127.06 97.83C126.65 98.23 126.33 98.71 126.11 99.25C125.88 99.79 125.77 100.38 125.77 101.01C125.77 101.65 125.88 102.23 126.11 102.77C126.34 103.31 126.65 103.78 127.06 104.19C127.47 104.59 127.95 104.91 128.5 105.13C129.05 105.35 129.65 105.46 130.3 105.46C130.89 105.46 131.44 105.37 131.97 105.18C132.5 104.99 132.97 104.68 133.41 104.25L133.87 104.73C133.43 105.2 132.89 105.56 132.27 105.79C131.65 106.04 130.98 106.16 130.27 106.16Z" fill="#6D6D6D"/>
<path d="M146.8 106.15C146.08 106.15 145.43 105.99 144.87 105.66C144.31 105.33 143.86 104.88 143.53 104.3C143.2 103.72 143.03 103.06 143.03 102.32C143.03 101.57 143.2 100.91 143.53 100.33C143.86 99.76 144.31 99.31 144.87 98.98C145.43 98.65 146.08 98.49 146.8 98.49C147.52 98.49 148.17 98.65 148.74 98.98C149.31 99.31 149.76 99.76 150.08 100.33C150.41 100.9 150.57 101.57 150.57 102.32C150.57 103.06 150.41 103.72 150.08 104.3C149.75 104.88 149.3 105.33 148.74 105.66C148.17 105.98 147.52 106.15 146.8 106.15ZM146.8 105.5C147.38 105.5 147.9 105.37 148.36 105.1C148.82 104.84 149.18 104.46 149.44 103.98C149.7 103.5 149.83 102.94 149.83 102.32C149.83 101.68 149.7 101.13 149.44 100.65C149.18 100.17 148.82 99.8 148.36 99.54C147.9 99.28 147.38 99.14 146.8 99.14C146.22 99.14 145.7 99.27 145.25 99.54C144.79 99.81 144.43 100.18 144.17 100.65C143.91 101.13 143.77 101.68 143.77 102.32C143.77 102.95 143.9 103.5 144.17 103.98C144.44 104.46 144.8 104.83 145.25 105.1C145.71 105.36 146.22 105.5 146.8 105.5Z" fill="#6D6D6D"/>
<path d="M164.59 98.49C165.21 98.49 165.74 98.61 166.2 98.84C166.66 99.08 167.01 99.43 167.27 99.91C167.53 100.39 167.65 100.98 167.65 101.68V106.09H166.93V101.74C166.93 100.89 166.72 100.25 166.29 99.8C165.86 99.36 165.26 99.13 164.49 99.13C163.9 99.13 163.39 99.25 162.96 99.49C162.53 99.73 162.2 100.07 161.97 100.5C161.74 100.93 161.63 101.45 161.63 102.06V106.08H160.91V98.54H161.6V100.63L161.5 100.4C161.73 99.8 162.11 99.33 162.64 98.99C163.17 98.66 163.82 98.49 164.59 98.49Z" fill="#6D6D6D"/>
<path d="M181.79 106.15C181.03 106.15 180.36 105.99 179.77 105.66C179.19 105.33 178.73 104.88 178.4 104.3C178.07 103.72 177.9 103.06 177.9 102.32C177.9 101.57 178.06 100.91 178.37 100.33C178.68 99.76 179.11 99.31 179.66 98.98C180.21 98.65 180.83 98.49 181.51 98.49C182.19 98.49 182.81 98.65 183.35 98.97C183.89 99.29 184.32 99.73 184.64 100.31C184.95 100.88 185.11 101.54 185.11 102.3C185.11 102.33 185.11 102.36 185.1 102.39C185.1 102.42 185.09 102.46 185.09 102.5H178.43V101.94H184.7L184.41 102.22C184.42 101.63 184.3 101.1 184.04 100.64C183.78 100.17 183.44 99.81 183.01 99.54C182.58 99.28 182.08 99.14 181.51 99.14C180.95 99.14 180.45 99.27 180.01 99.54C179.57 99.81 179.23 100.17 178.98 100.64C178.73 101.11 178.6 101.64 178.6 102.24V102.37C178.6 102.99 178.74 103.53 179.01 104.01C179.28 104.49 179.66 104.86 180.14 105.12C180.62 105.39 181.17 105.52 181.79 105.52C182.27 105.52 182.72 105.43 183.14 105.26C183.56 105.09 183.91 104.82 184.2 104.47L184.62 104.95C184.29 105.35 183.88 105.66 183.38 105.87C182.9 106.04 182.37 106.15 181.79 106.15Z" fill="#6D6D6D"/>
<path d="M194.03 106.09L197.17 102.02L197.16 102.37L194.2 98.55H195.02L197.61 101.89H197.31L199.88 98.55H200.69L197.7 102.41L197.71 102.02L200.89 106.09H200.04L197.31 102.53L197.58 102.56L194.86 106.09H194.03Z" fill="#6D6D6D"/>
<path d="M211.18 96.71C211.02 96.71 210.88 96.65 210.76 96.54C210.64 96.42 210.59 96.29 210.59 96.14C210.59 95.98 210.65 95.84 210.76 95.72C210.88 95.6 211.02 95.55 211.18 95.55C211.35 95.55 211.5 95.61 211.61 95.72C211.72 95.83 211.78 95.97 211.78 96.13C211.78 96.29 211.72 96.43 211.61 96.55C211.5 96.65 211.36 96.71 211.18 96.71ZM210.82 106.09V98.55H211.54V106.09H210.82Z" fill="#6D6D6D"/>
<path d="M225.63 106.15C224.91 106.15 224.26 105.99 223.7 105.66C223.14 105.33 222.69 104.88 222.36 104.3C222.03 103.72 221.86 103.06 221.86 102.32C221.86 101.57 222.03 100.91 222.36 100.33C222.69 99.76 223.14 99.31 223.7 98.98C224.26 98.65 224.91 98.49 225.63 98.49C226.35 98.49 227 98.65 227.57 98.98C228.14 99.31 228.59 99.76 228.91 100.33C229.24 100.9 229.4 101.57 229.4 102.32C229.4 103.06 229.24 103.72 228.91 104.3C228.58 104.88 228.13 105.33 227.57 105.66C227 105.98 226.36 106.15 225.63 106.15ZM225.63 105.5C226.21 105.5 226.73 105.37 227.19 105.1C227.65 104.84 228.01 104.46 228.27 103.98C228.53 103.5 228.66 102.94 228.66 102.32C228.66 101.68 228.53 101.13 228.27 100.65C228.01 100.17 227.65 99.8 227.19 99.54C226.73 99.28 226.21 99.14 225.63 99.14C225.05 99.14 224.53 99.27 224.08 99.54C223.62 99.81 223.26 100.18 223 100.65C222.74 101.13 222.6 101.68 222.6 102.32C222.6 102.95 222.73 103.5 223 103.98C223.27 104.46 223.63 104.83 224.08 105.1C224.54 105.36 225.06 105.5 225.63 105.5Z" fill="#6D6D6D"/>
<path d="M243.42 98.49C244.04 98.49 244.57 98.61 245.03 98.84C245.49 99.08 245.84 99.43 246.1 99.91C246.36 100.39 246.48 100.98 246.48 101.68V106.09H245.76V101.74C245.76 100.89 245.54 100.25 245.12 99.8C244.69 99.36 244.09 99.13 243.32 99.13C242.73 99.13 242.22 99.25 241.79 99.49C241.36 99.73 241.03 100.07 240.8 100.5C240.57 100.93 240.46 101.45 240.46 102.06V106.08H239.74V98.54H240.43V100.63L240.33 100.4C240.56 99.8 240.94 99.33 241.47 98.99C242 98.66 242.65 98.49 243.42 98.49Z" fill="#6D6D6D"/>
<path d="M260.62 106.15C259.86 106.15 259.19 105.99 258.6 105.66C258.02 105.33 257.56 104.88 257.23 104.3C256.9 103.72 256.73 103.06 256.73 102.32C256.73 101.57 256.89 100.91 257.2 100.33C257.51 99.76 257.94 99.31 258.49 98.98C259.04 98.65 259.66 98.49 260.34 98.49C261.02 98.49 261.64 98.65 262.18 98.97C262.72 99.29 263.15 99.73 263.47 100.31C263.78 100.88 263.94 101.54 263.94 102.3C263.94 102.33 263.94 102.36 263.93 102.39C263.93 102.42 263.92 102.46 263.92 102.5H257.26V101.94H263.53L263.24 102.22C263.25 101.63 263.13 101.1 262.87 100.64C262.61 100.17 262.27 99.81 261.84 99.54C261.41 99.28 260.91 99.14 260.34 99.14C259.78 99.14 259.28 99.27 258.85 99.54C258.41 99.81 258.07 100.17 257.82 100.64C257.57 101.11 257.44 101.64 257.44 102.24V102.37C257.44 102.99 257.58 103.53 257.85 104.01C258.12 104.49 258.5 104.86 258.98 105.12C259.46 105.39 260.01 105.52 260.63 105.52C261.11 105.52 261.56 105.43 261.98 105.26C262.4 105.09 262.75 104.82 263.04 104.47L263.46 104.95C263.13 105.35 262.72 105.66 262.22 105.87C261.73 106.04 261.2 106.15 260.62 106.15Z" fill="#6D6D6D"/>
<path d="M276.18 106.15C275.55 106.15 274.97 106.06 274.42 105.88C273.88 105.7 273.45 105.47 273.16 105.19L273.49 104.61C273.78 104.86 274.17 105.08 274.65 105.25C275.13 105.43 275.65 105.52 276.21 105.52C277 105.52 277.57 105.39 277.92 105.13C278.27 104.87 278.44 104.53 278.44 104.1C278.44 103.79 278.35 103.55 278.17 103.37C277.99 103.19 277.75 103.05 277.45 102.96C277.15 102.86 276.82 102.78 276.47 102.72C276.11 102.66 275.76 102.59 275.4 102.51C275.04 102.43 274.72 102.32 274.42 102.18C274.12 102.04 273.88 101.84 273.7 101.58C273.52 101.32 273.43 100.98 273.43 100.56C273.43 100.17 273.54 99.83 273.75 99.52C273.96 99.21 274.28 98.96 274.7 98.78C275.12 98.59 275.65 98.5 276.29 98.5C276.76 98.5 277.24 98.57 277.71 98.7C278.19 98.83 278.58 99.01 278.87 99.23L278.54 99.81C278.22 99.57 277.87 99.4 277.47 99.29C277.07 99.18 276.68 99.13 276.27 99.13C275.54 99.13 275 99.27 274.66 99.53C274.32 99.8 274.15 100.14 274.15 100.54C274.15 100.86 274.24 101.11 274.42 101.3C274.6 101.49 274.84 101.63 275.14 101.73C275.44 101.83 275.77 101.91 276.12 101.98C276.48 102.04 276.83 102.11 277.19 102.19C277.55 102.27 277.87 102.38 278.17 102.52C278.47 102.66 278.71 102.85 278.89 103.1C279.07 103.35 279.16 103.68 279.16 104.09C279.16 104.5 279.05 104.87 278.82 105.17C278.59 105.48 278.26 105.72 277.82 105.89C277.37 106.06 276.83 106.15 276.18 106.15Z" fill="#6D6D6D"/>
<path d="M304.15 106.15C303.5 106.15 302.95 106.03 302.47 105.8C302 105.56 301.64 105.21 301.38 104.73C301.12 104.25 301 103.66 301 102.96V98.55H301.72V102.9C301.72 103.75 301.94 104.39 302.37 104.84C302.8 105.28 303.42 105.5 304.21 105.5C304.78 105.5 305.27 105.38 305.68 105.14C306.09 104.9 306.41 104.56 306.63 104.12C306.85 103.68 306.96 103.16 306.96 102.57V98.55H307.68V106.09H306.99V103.99L307.09 104.24C306.87 104.83 306.5 105.29 305.98 105.63C305.47 105.98 304.86 106.15 304.15 106.15ZM303.52 97.32L305.53 95.61H306.57L304.3 97.32H303.52Z" fill="#6D6D6D"/>
<path d="M322.53 98.49C323.15 98.49 323.68 98.61 324.14 98.84C324.6 99.08 324.95 99.43 325.21 99.91C325.47 100.39 325.59 100.98 325.59 101.68V106.09H324.87V101.74C324.87 100.89 324.65 100.25 324.23 99.8C323.8 99.36 323.2 99.13 322.43 99.13C321.84 99.13 321.33 99.25 320.9 99.49C320.47 99.73 320.14 100.07 319.91 100.5C319.68 100.93 319.57 101.45 319.57 102.06V106.08H318.85V98.54H319.54V100.63L319.44 100.4C319.67 99.8 320.05 99.33 320.58 98.99C321.11 98.66 321.76 98.49 322.53 98.49Z" fill="#6D6D6D"/>
<path d="M337.02 96.71C336.86 96.71 336.72 96.65 336.6 96.54C336.48 96.42 336.43 96.29 336.43 96.14C336.43 95.98 336.49 95.84 336.6 95.72C336.72 95.6 336.86 95.55 337.02 95.55C337.19 95.55 337.34 95.61 337.45 95.72C337.56 95.83 337.62 95.97 337.62 96.13C337.62 96.29 337.56 96.43 337.45 96.55C337.34 96.65 337.2 96.71 337.02 96.71ZM336.66 106.09V98.55H337.38V106.09H336.66Z" fill="#6D6D6D"/>
<path d="M351.52 106.15C350.79 106.15 350.14 105.99 349.56 105.66C348.99 105.33 348.53 104.88 348.2 104.3C347.87 103.72 347.7 103.06 347.7 102.32C347.7 101.57 347.87 100.9 348.2 100.33C348.53 99.75 348.99 99.3 349.56 98.98C350.13 98.66 350.79 98.5 351.52 98.5C352.13 98.5 352.68 98.62 353.17 98.85C353.67 99.08 354.07 99.43 354.38 99.89L353.85 100.28C353.58 99.89 353.24 99.61 352.84 99.43C352.44 99.25 352 99.15 351.52 99.15C350.93 99.15 350.41 99.28 349.94 99.55C349.47 99.82 349.11 100.19 348.84 100.66C348.58 101.14 348.44 101.69 348.44 102.33C348.44 102.97 348.57 103.52 348.84 104C349.1 104.48 349.47 104.85 349.94 105.11C350.41 105.38 350.93 105.51 351.52 105.51C351.99 105.51 352.43 105.42 352.84 105.24C353.24 105.06 353.58 104.77 353.85 104.39L354.38 104.78C354.07 105.24 353.67 105.59 353.17 105.82C352.67 106.03 352.12 106.15 351.52 106.15Z" fill="#6D6D6D"/>
<path d="M366.68 106.15C366.12 106.15 365.64 106.06 365.23 105.88C364.82 105.7 364.51 105.45 364.29 105.12C364.07 104.79 363.96 104.42 363.96 103.99C363.96 103.61 364.05 103.26 364.23 102.94C364.41 102.63 364.7 102.37 365.12 102.17C365.53 101.97 366.09 101.87 366.78 101.87H369.56V102.43H366.8C366.02 102.43 365.47 102.57 365.16 102.86C364.85 103.15 364.69 103.51 364.69 103.94C364.69 104.42 364.87 104.81 365.24 105.1C365.61 105.39 366.12 105.53 366.79 105.53C367.43 105.53 367.96 105.39 368.4 105.1C368.84 104.81 369.16 104.39 369.37 103.84L369.57 104.33C369.37 104.88 369.02 105.32 368.54 105.64C368.05 105.99 367.43 106.15 366.68 106.15ZM369.39 106.09V104.37L369.36 104.11V101.28C369.36 100.58 369.17 100.04 368.79 99.68C368.41 99.31 367.85 99.13 367.12 99.13C366.6 99.13 366.12 99.22 365.67 99.4C365.22 99.58 364.84 99.81 364.52 100.09L364.16 99.57C364.54 99.23 364.99 98.97 365.52 98.78C366.05 98.59 366.6 98.5 367.18 98.5C368.11 98.5 368.83 98.74 369.33 99.21C369.83 99.68 370.08 100.38 370.08 101.32V106.1H369.39V106.09Z" fill="#6D6D6D"/>
<path d="M383.06 106.15C382.43 106.15 381.85 106.06 381.3 105.88C380.76 105.7 380.33 105.47 380.04 105.19L380.37 104.61C380.66 104.86 381.05 105.08 381.53 105.25C382.01 105.43 382.53 105.52 383.09 105.52C383.88 105.52 384.45 105.39 384.8 105.13C385.15 104.87 385.32 104.53 385.32 104.1C385.32 103.79 385.23 103.55 385.05 103.37C384.87 103.19 384.63 103.05 384.33 102.96C384.03 102.86 383.7 102.78 383.35 102.72C382.99 102.66 382.64 102.59 382.28 102.51C381.92 102.43 381.6 102.32 381.3 102.18C381 102.04 380.76 101.84 380.58 101.58C380.4 101.32 380.31 100.98 380.31 100.56C380.31 100.17 380.42 99.83 380.63 99.52C380.84 99.21 381.16 98.96 381.58 98.78C382 98.59 382.53 98.5 383.17 98.5C383.64 98.5 384.12 98.57 384.59 98.7C385.07 98.83 385.46 99.01 385.75 99.23L385.42 99.81C385.1 99.57 384.75 99.4 384.35 99.29C383.95 99.18 383.56 99.13 383.15 99.13C382.42 99.13 381.88 99.27 381.54 99.53C381.2 99.8 381.03 100.14 381.03 100.54C381.03 100.86 381.12 101.11 381.3 101.3C381.48 101.49 381.72 101.63 382.02 101.73C382.32 101.83 382.65 101.91 383 101.98C383.36 102.04 383.71 102.11 384.07 102.19C384.43 102.27 384.75 102.38 385.05 102.52C385.35 102.66 385.59 102.85 385.77 103.1C385.95 103.35 386.04 103.68 386.04 104.09C386.04 104.5 385.93 104.87 385.7 105.17C385.47 105.48 385.14 105.72 384.7 105.89C384.25 106.06 383.71 106.15 383.06 106.15Z" fill="#6D6D6D"/>
<path d="M111.01 79.91H99.1403L85.0803 62.68L79.1903 68.82V79.91H69.0903V73.03C72.1103 68.86 73.9003 63.72 73.9003 58.18C73.9003 55.37 73.4403 52.66 72.6003 50.13C72.1903 48.93 71.6903 47.77 71.1303 46.65C70.9303 46.23 70.6903 45.83 70.4603 45.42C70.4403 45.4 70.4403 45.39 70.4303 45.38C70.1803 44.97 69.9303 44.56 69.6603 44.17C69.4703 43.89 69.2803 43.61 69.0803 43.32V35.99H79.1803V56.49L98.6403 35.99H109.93L91.7503 55.56L111.01 79.91Z" fill="#5C166C"/>
<path d="M70.1103 50.97C69.7403 49.89 69.3003 48.84 68.8003 47.85C68.6103 47.47 68.4103 47.12 68.2003 46.75C68.1803 46.73 68.1803 46.72 68.1703 46.71C67.9503 46.34 67.7303 45.98 67.4903 45.63C66.8003 44.6 66.0303 43.62 65.1903 42.71C64.9703 42.47 64.7403 42.23 64.5103 42C64.2803 41.77 64.0403 41.55 63.7903 41.33C62.9703 40.59 62.1003 39.91 61.1703 39.29C60.8103 39.04 60.4403 38.81 60.0503 38.58C59.7103 38.38 59.3603 38.19 59.0103 38.02C57.1803 37.06 55.2203 36.35 53.1403 35.93C52.6603 35.82 52.1803 35.74 51.6803 35.67C51.2003 35.6 50.7203 35.55 50.2303 35.52C49.6703 35.48 49.1003 35.46 48.5303 35.46C35.9703 35.46 25.7903 45.64 25.7903 58.2V58.27C25.7903 58.68 25.8003 59.1 25.8303 59.51C25.8403 59.91 25.8703 60.3 25.9203 60.7C26.1003 62.34 26.4503 63.93 26.9503 65.43C27.1303 65.95 27.3203 66.46 27.5303 66.97C27.6403 67.25 27.7603 67.52 27.8903 67.78C28.0203 68.05 28.1503 68.32 28.2803 68.59C28.4803 68.97 28.6903 69.34 28.9003 69.72C30.5603 72.54 32.8003 74.96 35.4703 76.83C35.6803 76.98 35.8803 77.12 36.0903 77.26C36.3003 77.4 36.5103 77.53 36.7203 77.66C36.8203 77.73 36.9203 77.78 37.0303 77.85C37.3303 78.02 37.6303 78.19 37.9403 78.35C38.0903 78.43 38.2303 78.5 38.3803 78.57C38.5303 78.65 38.6603 78.72 38.8103 78.78C39.5203 79.11 40.2403 79.4 40.9803 79.67C41.1003 79.71 41.2103 79.76 41.3203 79.79C41.4303 79.82 41.5403 79.87 41.6603 79.89C41.7303 79.92 41.8103 79.94 41.8803 79.96C42.1703 80.06 42.4803 80.15 42.7803 80.22H42.7903C42.9003 80.25 43.0103 80.27 43.1203 80.3C43.6503 80.44 44.1703 80.54 44.7203 80.63C44.8003 80.65 44.8703 80.66 44.9403 80.66C45.0203 80.68 45.0903 80.69 45.1803 80.69C45.3303 80.72 45.4903 80.74 45.6503 80.77C46.6003 80.89 47.5603 80.95 48.5403 80.95C61.1003 80.95 71.2803 70.76 71.2803 58.21C71.2703 55.67 70.8603 53.23 70.1103 50.97ZM61.0203 59.64C60.7303 62.16 59.7003 64.46 58.1303 66.3C58.1203 66.33 58.1003 66.34 58.0903 66.36C56.0803 68.72 53.2203 70.33 49.9603 70.7C49.4903 70.75 49.0003 70.79 48.5203 70.79C48.5103 70.79 48.5103 70.79 48.5103 70.79C48.3003 70.79 48.0903 70.78 47.9003 70.77H47.8703C47.8503 70.77 47.8303 70.77 47.8103 70.76C47.7903 70.77 47.7803 70.76 47.7703 70.76C47.6303 70.75 47.5003 70.74 47.3703 70.73C47.2903 70.73 47.2203 70.72 47.1503 70.71C47.0503 70.7 46.9403 70.68 46.8403 70.67C45.5303 70.5 44.2903 70.12 43.1303 69.58C42.9603 69.5 42.7903 69.42 42.6303 69.32C42.4703 69.23 42.3103 69.15 42.1503 69.06H42.1403C39.3403 67.41 37.2403 64.71 36.3703 61.5C36.3103 61.27 36.2503 61.03 36.2103 60.79C36.1803 60.71 36.1703 60.64 36.1603 60.55C36.1303 60.39 36.1003 60.22 36.0703 60.05C36.0403 59.92 36.0403 59.8 36.0203 59.67C35.9603 59.18 35.9303 58.7 35.9303 58.19C35.9303 55.67 36.6603 53.32 37.9403 51.36C39.0803 49.58 40.6603 48.11 42.5303 47.1C43.4103 46.62 44.3703 46.25 45.3603 46H45.3703C45.6103 45.93 45.8503 45.87 46.1003 45.83C46.8803 45.68 47.6903 45.6 48.5103 45.6C49.4703 45.6 50.4203 45.71 51.3203 45.92C51.5903 45.98 51.8703 46.05 52.1303 46.13C52.3903 46.21 52.6603 46.29 52.9203 46.39C54.8103 47.09 56.4903 48.25 57.8303 49.71C57.9703 49.86 58.0903 50.02 58.2203 50.17C58.3603 50.32 58.4803 50.49 58.6003 50.66C59.4403 51.79 60.0903 53.05 60.5203 54.42C60.5803 54.61 60.6303 54.8 60.6703 54.98C60.7003 55.09 60.7303 55.2 60.7603 55.31C60.7903 55.41 60.8103 55.51 60.8403 55.63C60.8703 55.81 60.9103 55.99 60.9303 56.17C60.9403 56.23 60.9503 56.28 60.9603 56.33C61.0503 56.94 61.1003 57.55 61.1003 58.19C61.1103 58.67 61.0803 59.16 61.0203 59.64Z" fill="#5C166C"/>
<path d="M136.01 47.92C133.37 46.53 130.4 45.83 127.11 45.83C123.69 45.83 120.63 46.57 117.93 48.05C115.22 49.53 113.09 51.57 111.53 54.17C109.97 56.77 109.19 59.76 109.19 63.13C109.19 66.46 109.98 69.43 111.56 72.03C113.14 74.63 115.38 76.68 118.27 78.18C121.16 79.68 124.53 80.43 128.36 80.43C131.4 80.43 134.09 79.96 136.42 79.02C138.75 78.08 140.69 76.74 142.23 74.99L137.05 69.37C135.93 70.45 134.69 71.27 133.33 71.81C131.98 72.35 130.4 72.62 128.61 72.62C126.61 72.62 124.87 72.26 123.39 71.53C121.91 70.8 120.77 69.74 119.95 68.34C119.51 67.58 119.2 66.76 119 65.87H144.41C144.45 65.45 144.49 65.01 144.54 64.53C144.58 64.05 144.6 63.62 144.6 63.25C144.6 59.63 143.83 56.51 142.29 53.91C140.75 51.31 138.66 49.32 136.01 47.92ZM118.89 60.19C119.05 59.15 119.34 58.19 119.8 57.35C120.51 56.04 121.5 55.02 122.77 54.29C124.04 53.56 125.51 53.2 127.17 53.2C128.83 53.2 130.29 53.57 131.54 54.29C132.79 55.02 133.77 56.03 134.48 57.32C134.95 58.17 135.25 59.14 135.41 60.19H118.89Z" fill="#FC3109"/>
<path d="M201.23 47.42C199.17 46.36 196.8 45.83 194.14 45.83C190.93 45.83 188.09 46.6 185.61 48.14C184.2 49.02 183.01 50.08 182.04 51.31C181.26 50.04 180.27 48.99 179.05 48.17C176.74 46.61 174.04 45.83 170.96 45.83C168.21 45.83 165.76 46.42 163.62 47.61C162.38 48.29 161.31 49.17 160.4 50.22V46.33H151.09V79.94H160.84V63.07C160.84 61.07 161.15 59.43 161.78 58.14C162.41 56.85 163.28 55.88 164.4 55.24C165.52 54.59 166.79 54.27 168.21 54.27C170.25 54.27 171.82 54.92 172.93 56.21C174.03 57.5 174.59 59.5 174.59 62.21V79.95H184.33V63.07C184.33 61.07 184.64 59.43 185.27 58.14C185.89 56.85 186.77 55.88 187.89 55.24C189.01 54.59 190.28 54.27 191.7 54.27C193.74 54.27 195.32 54.92 196.45 56.21C197.57 57.5 198.14 59.5 198.14 62.21V79.95H207.88V60.69C207.88 57.28 207.29 54.47 206.1 52.29C204.92 50.11 203.29 48.48 201.23 47.42Z" fill="#FC3109"/>
<path d="M245.02 47.98C242.5 46.54 239.66 45.83 236.49 45.83C233.53 45.83 230.99 46.45 228.87 47.7C227.75 48.36 226.77 49.2 225.93 50.22V46.33H216.62V92.06H226.36V76.36C227.15 77.24 228.05 77.98 229.05 78.57C231.17 79.82 233.65 80.44 236.48 80.44C239.64 80.44 242.49 79.73 245.01 78.32C247.53 76.9 249.53 74.91 251.01 72.32C252.49 69.74 253.23 66.68 253.23 63.14C253.23 59.64 252.49 56.6 251.01 54.02C249.54 51.43 247.54 49.42 245.02 47.98ZM242.21 68.1C241.44 69.5 240.42 70.57 239.15 71.32C237.88 72.07 236.43 72.44 234.81 72.44C233.19 72.44 231.73 72.07 230.44 71.32C229.15 70.57 228.13 69.5 227.38 68.1C226.63 66.71 226.26 65.05 226.26 63.13C226.26 61.17 226.63 59.51 227.38 58.13C228.13 56.76 229.15 55.69 230.44 54.94C231.73 54.19 233.19 53.82 234.81 53.82C236.43 53.82 237.88 54.19 239.15 54.94C240.42 55.69 241.44 56.75 242.21 58.13C242.98 59.5 243.37 61.17 243.37 63.13C243.37 65.05 242.98 66.7 242.21 68.1Z" fill="#FC3109"/>
<path d="M269.47 33.58H259.73V79.93H269.47V33.58Z" fill="#FC3109"/>
<path d="M302.86 47.92C300.22 46.53 297.25 45.83 293.96 45.83C290.54 45.83 287.48 46.57 284.78 48.05C282.07 49.53 279.94 51.57 278.38 54.17C276.82 56.77 276.04 59.76 276.04 63.13C276.04 66.46 276.83 69.43 278.41 72.03C279.99 74.63 282.23 76.68 285.12 78.18C288.01 79.68 291.38 80.43 295.21 80.43C298.25 80.43 300.94 79.96 303.27 79.02C305.6 78.08 307.54 76.74 309.08 74.99L303.9 69.37C302.78 70.45 301.54 71.27 300.18 71.81C298.83 72.35 297.25 72.62 295.46 72.62C293.46 72.62 291.72 72.26 290.24 71.53C288.76 70.8 287.62 69.74 286.8 68.34C286.36 67.58 286.05 66.76 285.85 65.87H311.26C311.3 65.45 311.34 65.01 311.39 64.53C311.43 64.05 311.45 63.62 311.45 63.25C311.45 59.63 310.68 56.51 309.14 53.91C307.6 51.31 305.51 49.32 302.86 47.92ZM285.74 60.19C285.9 59.15 286.19 58.19 286.65 57.35C287.36 56.04 288.35 55.02 289.62 54.29C290.89 53.56 292.36 53.2 294.02 53.2C295.68 53.2 297.14 53.57 298.39 54.29C299.64 55.02 300.62 56.03 301.33 57.32C301.8 58.17 302.1 59.14 302.26 60.19H285.74Z" fill="#FC3109"/>
<path d="M343.44 48.04C340.65 46.56 337.48 45.82 333.94 45.82C330.36 45.82 327.18 46.56 324.41 48.04C321.64 49.52 319.45 51.56 317.85 54.16C316.25 56.76 315.44 59.75 315.44 63.12C315.44 66.45 316.24 69.42 317.85 72.02C319.45 74.62 321.64 76.67 324.41 78.17C327.18 79.67 330.35 80.42 333.94 80.42C337.48 80.42 340.65 79.67 343.44 78.17C346.23 76.67 348.42 74.62 350 72.02C351.58 69.42 352.37 66.45 352.37 63.12C352.37 59.71 351.58 56.71 350 54.12C348.41 51.55 346.23 49.52 343.44 48.04ZM341.38 68.1C340.63 69.5 339.61 70.57 338.32 71.32C337.03 72.07 335.57 72.44 333.95 72.44C332.33 72.44 330.87 72.07 329.58 71.32C328.29 70.57 327.26 69.5 326.49 68.1C325.72 66.71 325.33 65.05 325.33 63.13C325.33 61.17 325.71 59.51 326.49 58.13C327.26 56.76 328.29 55.69 329.58 54.94C330.87 54.19 332.33 53.82 333.95 53.82C335.57 53.82 337.03 54.19 338.32 54.94C339.61 55.69 340.63 56.75 341.38 58.13C342.13 59.5 342.5 61.17 342.5 63.13C342.5 65.05 342.13 66.7 341.38 68.1Z" fill="#FC3109"/>
<path d="M384.92 65.1C384.17 63.91 383.2 62.98 382.02 62.29C380.83 61.6 379.51 61.07 378.05 60.7C376.59 60.32 375.15 60.04 373.71 59.86C372.27 59.67 370.95 59.45 369.74 59.2C368.53 58.95 367.56 58.62 366.83 58.2C366.1 57.78 365.74 57.16 365.74 56.33C365.74 55.41 366.24 54.66 367.24 54.08C368.24 53.5 369.82 53.21 371.99 53.21C373.53 53.21 375.12 53.39 376.77 53.74C378.41 54.09 380.05 54.75 381.67 55.71L384.92 48.78C383.34 47.82 381.36 47.09 378.98 46.59C376.61 46.09 374.27 45.84 371.98 45.84C368.73 45.84 365.94 46.31 363.61 47.25C361.28 48.19 359.5 49.47 358.27 51.09C357.04 52.71 356.43 54.59 356.43 56.71C356.43 58.63 356.79 60.19 357.52 61.39C358.25 62.6 359.22 63.56 360.42 64.26C361.63 64.97 362.96 65.5 364.42 65.85C365.88 66.2 367.32 66.49 368.76 66.69C370.2 66.9 371.52 67.11 372.73 67.31C373.94 67.52 374.91 67.82 375.63 68.22C376.36 68.62 376.72 69.21 376.72 70C376.72 70.96 376.25 71.71 375.31 72.25C374.37 72.79 372.78 73.06 370.53 73.06C368.49 73.06 366.42 72.76 364.31 72.15C362.21 71.55 360.38 70.77 358.84 69.81L355.59 76.81C357.13 77.85 359.22 78.72 361.87 79.4C364.52 80.09 367.27 80.43 370.15 80.43C373.52 80.43 376.39 79.97 378.74 79.06C381.09 78.14 382.89 76.88 384.14 75.28C385.39 73.68 386.01 71.83 386.01 69.75C386.04 67.84 385.67 66.29 384.92 65.1Z" fill="#FC3109"/>
<path d="M387.1 42.36C387.1 41.2 387.37 40.13 387.9 39.14C388.44 38.15 389.18 37.37 390.12 36.8C391.07 36.23 392.09 35.95 393.19 35.95C394.29 35.95 395.31 36.23 396.26 36.8C397.2 37.37 397.94 38.15 398.48 39.14C399.02 40.13 399.28 41.2 399.28 42.36C399.28 43.49 399.02 44.54 398.51 45.53C397.99 46.51 397.26 47.31 396.32 47.9C395.37 48.5 394.33 48.8 393.2 48.8C392.07 48.8 391.03 48.5 390.09 47.91C389.14 47.32 388.41 46.53 387.89 45.54C387.36 44.56 387.1 43.5 387.1 42.36ZM388.09 42.35C388.09 43.33 388.32 44.24 388.78 45.08C389.24 45.92 389.86 46.57 390.65 47.05C391.44 47.52 392.29 47.76 393.2 47.76C394.12 47.76 394.98 47.52 395.77 47.04C396.56 46.56 397.18 45.9 397.63 45.07C398.08 44.24 398.3 43.33 398.3 42.35C398.3 41.37 398.08 40.47 397.63 39.64C397.18 38.81 396.56 38.16 395.77 37.68C394.98 37.2 394.12 36.96 393.2 36.96C392.28 36.96 391.43 37.2 390.64 37.67C389.85 38.14 389.23 38.8 388.77 39.63C388.32 40.48 388.09 41.38 388.09 42.35ZM391.94 43V45.9H390.73V38.61H393.1C393.98 38.61 394.66 38.8 395.14 39.17C395.62 39.54 395.87 40.09 395.87 40.81C395.87 41.51 395.5 42.05 394.77 42.42C395.47 42.71 395.82 43.29 395.83 44.17V44.69C395.83 45.18 395.88 45.54 395.98 45.75V45.89H394.73C394.65 45.68 394.61 45.32 394.61 44.79C394.61 44.26 394.6 43.95 394.58 43.85C394.49 43.3 394.11 43.01 393.46 42.99H391.94V43ZM391.94 41.9H393.28C393.69 41.89 394.02 41.79 394.28 41.6C394.53 41.41 394.66 41.16 394.66 40.86C394.66 40.44 394.55 40.15 394.33 39.97C394.11 39.8 393.71 39.71 393.14 39.71H391.96V41.9H391.94Z" fill="#FC3109"/>
<path d="M19.4203 57.54C19.4303 57.11 19.4503 56.67 19.4703 56.24C20.8103 28.07 44.0603 5.66001 72.5603 5.66001C94.7503 5.66001 113.77 19.26 121.72 38.58C122.01 39.29 122.73 39.7 123.49 39.6C123.52 39.6 123.55 39.59 123.58 39.59C124.65 39.46 125.3 38.32 124.9 37.32C117.45 18.66 100.61 4.78001 80.2203 1.50001C79.4603 1.38001 78.7003 1.27001 77.9403 1.18001C77.5603 1.13001 77.1703 1.09001 76.7903 1.05001C76.4103 1.01001 76.0203 0.98001 75.6303 0.95001C75.3203 0.93001 75.0003 0.900009 74.6803 0.880009C74.1803 0.850009 73.6903 0.830009 73.1903 0.800009C72.8303 0.790009 72.4703 0.78001 72.1203 0.77001C71.7203 0.76001 71.3303 0.76001 70.9403 0.76001C69.1803 0.76001 67.4303 0.840009 65.7103 0.990009C65.2903 1.03001 64.8703 1.07001 64.4503 1.12001C64.1303 1.15001 63.8103 1.19001 63.4903 1.23001C63.0203 1.29001 62.5603 1.35001 62.0903 1.43001C61.8303 1.47001 61.5803 1.51001 61.3303 1.55001C33.6603 6.13001 12.5603 30.18 12.5603 59.14C12.5603 72.57 17.0903 84.94 24.7203 94.8C25.0103 95.18 25.3103 95.56 25.6203 95.93L2.35027 115.1C0.35027 116.62 -0.329727 119.17 0.400273 121.38C0.660273 122.2 1.13027 122.98 1.79027 123.65L6.16028 128.02C6.91028 128.77 7.81027 129.26 8.75027 129.5C10.8803 130.06 13.2503 129.36 14.7003 127.47L35.0503 104.56C44.9303 112.34 57.4003 116.98 70.9503 116.98C92.2303 116.98 110.84 105.54 120.96 88.48C121.54 87.5 121.05 86.2 119.95 85.88C119.94 85.88 119.93 85.87 119.91 85.87C119.13 85.65 118.3 85.94 117.88 86.63C108.53 101.83 91.7403 111.97 72.5803 111.97C45.3103 111.97 22.8403 91.44 19.7903 64.99C19.7503 64.66 19.7203 64.32 19.6803 63.98C19.6303 63.44 19.5803 62.9 19.5503 62.36C19.5403 62.15 19.5203 61.95 19.5103 61.74C19.5003 61.6 19.4903 61.46 19.4903 61.32C19.4703 60.95 19.4603 60.57 19.4503 60.19C19.4403 59.75 19.4303 59.32 19.4303 58.88V58.82C19.4003 58.39 19.4103 57.96 19.4203 57.54Z" fill="#5C166C"/>
</svg>
