<svg width="675" height="285" viewBox="0 0 675 285" fill="none" xmlns="http://www.w3.org/2000/svg">
<g style="mix-blend-mode:hard-light">
<path d="M532.01 0C453.4 0 389.67 63.73 389.67 142.34C389.67 220.95 453.4 284.68 532.01 284.68C610.62 284.68 674.35 220.95 674.35 142.34C674.34 63.72 610.61 0 532.01 0ZM619.38 251.95C595.4 270.95 565.08 282.29 532.11 282.29C499.08 282.29 468.72 270.91 444.71 251.85C437.96 246.49 437.36 236.46 443.46 230.37C448.66 225.17 456.9 224.77 462.66 229.33C481.74 244.46 505.87 253.5 532.11 253.5C558.3 253.5 582.4 244.49 601.45 229.41C607.22 224.85 615.45 225.26 620.64 230.46H620.65C626.74 236.55 626.13 246.59 619.38 251.95ZM445.04 145.2C445.04 97.48 483.32 58.69 530.83 57.9C531.31 57.87 531.82 57.87 532.33 57.87C532.85 57.87 533.36 57.87 533.84 57.9C581.39 58.69 619.66 97.48 619.66 145.2C619.66 193.43 580.56 232.5 532.33 232.5C484.14 232.49 445.04 193.43 445.04 145.2ZM641.82 182.83C641.33 182.88 640.83 182.91 640.32 182.91C636.36 182.91 632.77 181.3 630.17 178.7C627.58 176.11 625.98 172.53 625.98 168.57V124.72C625.98 120.76 627.59 117.18 630.18 114.58C630.41 114.35 630.64 114.14 630.89 113.93C617.64 72.15 578.54 41.87 532.36 41.87C485.83 41.87 446.48 72.62 433.53 114.91C435.94 117.48 437.42 120.93 437.42 124.72V168.57C437.42 172 436.21 175.15 434.2 177.62C431.58 180.85 427.57 182.91 423.09 182.91C423.03 182.91 422.98 182.91 422.92 182.9C415.08 182.81 408.76 176.42 408.76 168.57V124.72C408.76 120.76 410.37 117.18 412.96 114.58C415.3 112.24 418.44 110.71 421.94 110.43C436.7 63.49 480.56 29.45 532.37 29.45C584.25 29.45 628.15 63.57 642.85 110.61C649.57 111.79 654.67 117.67 654.67 124.73V168.58C654.66 175.98 649.04 182.08 641.82 182.83Z" fill="url(#paint0_linear_10_575)"/>
<path d="M593.161 121.61C585.121 121.61 578.621 128.11 578.621 136.11C578.621 142.81 583.211 148.46 589.401 150.1C586.871 180.14 561.661 203.77 531.011 203.77C500.321 203.77 475.121 180.13 472.581 150.1C478.771 148.46 483.321 142.82 483.321 136.11C483.321 128.1 476.821 121.61 468.821 121.61C460.781 121.61 454.281 128.11 454.281 136.11C454.281 142.71 458.691 148.29 464.751 150.03C467.241 184.4 496.021 211.56 531.011 211.56C566.001 211.56 594.741 184.4 597.241 150.03C603.261 148.25 607.671 142.71 607.671 136.11C607.661 128.11 601.161 121.61 593.161 121.61ZM593.161 121.61C585.121 121.61 578.621 128.11 578.621 136.11C578.621 142.81 583.211 148.46 589.401 150.1C586.871 180.14 561.661 203.77 531.011 203.77C500.321 203.77 475.121 180.13 472.581 150.1C478.771 148.46 483.321 142.82 483.321 136.11C483.321 128.1 476.821 121.61 468.821 121.61C460.781 121.61 454.281 128.11 454.281 136.11C454.281 142.71 458.691 148.29 464.751 150.03C467.241 184.4 496.021 211.56 531.011 211.56C566.001 211.56 594.741 184.4 597.241 150.03C603.261 148.25 607.671 142.71 607.671 136.11C607.661 128.11 601.161 121.61 593.161 121.61Z" fill="url(#paint1_linear_10_575)"/>
<path d="M179.681 195.43C197.191 187.71 210.711 176.57 220.241 162.01C229.761 147.46 234.531 130.14 234.531 110.06C234.531 89.72 229.761 72.2 220.241 57.52C210.711 42.84 197.191 31.58 179.681 23.72C162.161 15.87 141.311 11.93 117.101 11.93H0.0605469V282.33C34.6205 282.33 62.6405 254.31 62.6405 219.75V207H117.111C118.101 207 119.001 206.89 119.981 206.88L171.961 282.32H239.561L179.131 195.61C179.301 195.56 179.501 195.5 179.681 195.43ZM156.891 144.63C147.361 153 132.941 157.18 113.621 157.18H62.6306V62.93H113.621C132.941 62.93 147.361 67.05 156.891 75.29C166.421 83.54 171.181 95.12 171.181 110.06C171.181 124.74 166.411 136.27 156.891 144.63Z" fill="url(#paint2_linear_10_575)"/>
<path d="M283.98 74.52V282.35C318.54 282.35 346.56 254.33 346.56 219.77V11.94C311.99 11.94 283.98 39.96 283.98 74.52Z" fill="url(#paint3_linear_10_575)"/>
</g>
<defs>
<linearGradient id="paint0_linear_10_575" x1="532.006" y1="0.5945" x2="532.006" y2="284.951" gradientUnits="userSpaceOnUse">
<stop stop-color="#FB3109"/>
<stop offset="1" stop-color="#5C166C"/>
</linearGradient>
<linearGradient id="paint1_linear_10_575" x1="530.97" y1="0.594482" x2="530.97" y2="284.951" gradientUnits="userSpaceOnUse">
<stop stop-color="#FB3109"/>
<stop offset="1" stop-color="#5C166C"/>
</linearGradient>
<linearGradient id="paint2_linear_10_575" x1="119.807" y1="0.594509" x2="119.807" y2="284.951" gradientUnits="userSpaceOnUse">
<stop stop-color="#FB3109"/>
<stop offset="1" stop-color="#5C166C"/>
</linearGradient>
<linearGradient id="paint3_linear_10_575" x1="315.263" y1="0.594503" x2="315.263" y2="284.951" gradientUnits="userSpaceOnUse">
<stop stop-color="#FB3109"/>
<stop offset="1" stop-color="#5C166C"/>
</linearGradient>
</defs>
</svg>
