<?xml version="1.0" encoding="UTF-8"?>
<svg id="Layer_2" xmlns="http://www.w3.org/2000/svg" version="1.1" viewBox="0 0 536.9 138.4">
  <!-- Generator: Adobe Illustrator 29.0.1, SVG Export Plug-In . SVG Version: 2.1.0 Build 192)  -->
  <defs>
    <style>
      .st0 {
        fill: #75207c;
      }

      .st0, .st1, .st2, .st3 {
        fill-rule: evenodd;
      }

      .st4 {
        fill: #89878c;
      }

      .st1 {
        fill: #fff;
      }

      .st2 {
        fill: #fdd000;
      }

      .st3, .st5 {
        fill: #eb791e;
      }
    </style>
  </defs>
  <g id="Capa_1">
    <path class="st5" d="M159.4,57.4c1.9,0,3.4-.2,4.6-.5s2.2-.7,2.9-1.3,1.2-1.2,1.5-1.9.4-1.5.4-2.4c0-1.9-.9-3.5-2.7-4.8-1.8-1.3-4.9-2.6-9.2-4.1-1.9-.7-3.8-1.4-5.7-2.3s-3.6-2-5.1-3.3c-1.5-1.3-2.7-2.9-3.7-4.8-.9-1.9-1.4-4.2-1.4-6.9s.5-5.1,1.5-7.3,2.4-4,4.3-5.5,4.1-2.7,6.7-3.5c2.6-.8,5.6-1.2,8.9-1.2s7.3.4,10.2,1.3,5.2,1.8,7.1,2.8l-3.8,10.3c-1.6-.8-3.4-1.6-5.4-2.2-2-.6-4.4-1-7.2-1s-5.4.4-6.8,1.3-2.1,2.2-2.1,4,.2,2,.8,2.7c.5.7,1.2,1.4,2.1,2,.9.6,2,1.1,3.2,1.6s2.5,1,4,1.5c3,1.1,5.7,2.2,7.9,3.3,2.2,1.1,4.1,2.4,5.6,3.8s2.6,3.2,3.3,5.1,1.1,4.3,1.1,7.1c0,5.4-1.9,9.7-5.7,12.7-3.8,3-9.6,4.5-17.2,4.5s-4.9-.2-7-.5-3.9-.7-5.5-1.1-3-.9-4.1-1.4c-1.2-.5-2.1-1-2.9-1.4l3.7-10.4c1.7.9,3.9,1.8,6.4,2.6,2.6.8,5.7,1.1,9.4,1.1h0ZM223.9,23.2c-2.5,8.5-5.2,16.5-7.9,24-2.8,7.5-5.8,14.7-9,21.7-1.2,2.5-2.4,4.7-3.5,6.4-1.2,1.8-2.5,3.2-3.9,4.4s-3,2-4.8,2.5c-1.8.5-3.8.8-6.2.8s-3.8-.2-5.4-.5c-1.6-.4-3-.8-4.1-1.2l2.2-10c1.3.5,2.4.8,3.4.9s2.1.2,3.2.2c2.2,0,4-.6,5.2-1.8s2.2-2.9,3.1-5c-2.9-5.6-5.7-11.9-8.6-18.9-2.9-7-5.6-14.8-8.1-23.5h13.3c.6,2.2,1.2,4.6,2,7.1.8,2.6,1.6,5.1,2.4,7.7.9,2.6,1.7,5.1,2.6,7.6.9,2.5,1.7,4.7,2.5,6.7.7-2,1.5-4.3,2.3-6.7.8-2.5,1.6-5,2.3-7.6.8-2.6,1.5-5.2,2.2-7.7.7-2.6,1.3-4.9,1.9-7.1h13ZM224.9,24.7c2.1-.6,4.9-1.2,8.2-1.7,3.4-.5,6.9-.8,10.6-.8s6.9.5,9.4,1.5,4.5,2.4,5.9,4.2c1.5,1.8,2.5,3.9,3.1,6.4.6,2.5.9,5.2.9,8.2v25h-12.5v-23.5c0-4-.5-6.9-1.6-8.6-1.1-1.7-3.1-2.5-6-2.5s-1.9,0-2.9.1c-1,0-1.9.2-2.7.3v34.1h-12.5V24.7h0ZM266.6,45.6c0-3.9.6-7.4,1.8-10.3,1.2-2.9,2.8-5.4,4.8-7.4,2-2,4.2-3.4,6.8-4.5,2.6-1,5.2-1.5,7.9-1.5,6.3,0,11.2,1.9,14.9,5.8,3.6,3.8,5.5,9.5,5.5,16.9s0,1.5,0,2.4-.1,1.6-.2,2.3h-28.4c.3,2.6,1.5,4.6,3.6,6.1,2.1,1.5,5,2.3,8.6,2.3s4.6-.2,6.8-.6c2.2-.4,4-.9,5.4-1.6l1.7,10.2c-.7.3-1.6.7-2.7,1s-2.4.6-3.7.9c-1.4.2-2.8.5-4.4.6-1.6.2-3.1.2-4.7.2-4,0-7.4-.6-10.4-1.8-2.9-1.2-5.4-2.8-7.3-4.8-1.9-2-3.4-4.5-4.3-7.3-.9-2.8-1.4-5.8-1.4-9.1h0ZM296,40.8c0-1.1-.2-2.1-.5-3.1s-.8-1.9-1.4-2.7c-.6-.8-1.5-1.4-2.4-1.9s-2.2-.8-3.7-.8-2.6.2-3.6.7c-1,.5-1.9,1.1-2.5,1.9-.7.8-1.2,1.7-1.6,2.7s-.6,2.1-.8,3.2h16.6,0ZM338.7,34.3c-1.1-.3-2.4-.6-4-.9s-3.1-.5-4.9-.5-1.7,0-2.8.2c-1.1.1-1.9.3-2.5.5v33.8h-12.5V25.5c2.2-.8,4.9-1.5,7.9-2.2,3.1-.7,6.5-1,10.2-1s1.5,0,2.4.1c.9,0,1.9.2,2.9.3s1.9.3,2.9.5,1.8.4,2.4.7l-2.1,10.3h0ZM351.7,43.9c0,7,2.8,10.5,8.5,10.5s2.5-.2,3.6-.5c1.1-.3,2.1-.7,2.9-1.2v-20c-.6-.1-1.3-.2-2.2-.3-.8,0-1.8-.1-2.9-.1-3.3,0-5.8,1.1-7.4,3.3s-2.4,5-2.4,8.3h0ZM379.2,61.8c0,7.2-1.8,12.6-5.5,16.1-3.7,3.5-9.3,5.3-17,5.3s-5.4-.2-8.1-.7c-2.7-.5-5.2-1.1-7.5-1.9l2.2-10.5c2,.8,4,1.4,6.2,1.9,2.2.5,4.6.7,7.4.7s6.1-.8,7.6-2.4c1.5-1.6,2.2-3.6,2.2-6.1v-1.6c-1.3.6-2.7,1.1-4.2,1.4-1.4.3-3,.5-4.7.5-6.1,0-10.8-1.8-14-5.4-3.3-3.6-4.9-8.7-4.9-15.2s.5-6.2,1.5-8.9c1-2.7,2.5-4.9,4.4-6.9,1.9-1.9,4.3-3.4,7.1-4.4s6-1.6,9.5-1.6,3.1,0,4.7.2c1.6.1,3.2.3,4.8.5,1.6.2,3.1.5,4.5.8,1.4.3,2.7.6,3.8,1v37.2h0ZM397.8,67.4h-12.5V23.2h12.5v44.2h0ZM399,10.4c0,2.3-.7,4.1-2.2,5.4-1.5,1.3-3.2,2-5.3,2s-3.8-.7-5.3-2c-1.5-1.3-2.2-3.1-2.2-5.4s.7-4.1,2.2-5.4c1.5-1.3,3.2-2,5.3-2s3.8.7,5.3,2c1.5,1.3,2.2,3.1,2.2,5.4h0ZM420.8,58.6c1.2,0,2.4,0,3.5,0s2-.1,2.7-.2v-9.5c-.5-.1-1.3-.2-2.3-.3-1-.1-1.9-.2-2.8-.2s-2.3,0-3.3.2c-1,.1-2,.4-2.7.8-.8.4-1.4.9-1.9,1.6s-.7,1.5-.7,2.5c0,2,.7,3.3,2,4.1,1.3.8,3.1,1.1,5.4,1.1h0ZM419.8,22c3.7,0,6.8.4,9.2,1.3s4.4,2,5.9,3.6c1.5,1.6,2.5,3.5,3.2,5.7s.9,4.7.9,7.5v26.1c-1.8.4-4.3.9-7.5,1.4s-7.1.8-11.6.8-5.5-.2-7.8-.8-4.3-1.3-6-2.5-3-2.7-3.9-4.5c-.9-1.9-1.3-4.1-1.3-6.8s.5-4.8,1.6-6.6c1-1.8,2.4-3.2,4.2-4.3,1.7-1.1,3.7-1.8,6-2.3s4.6-.7,7-.7,3.1,0,4.3.2,2.3.3,3.1.5v-1.2c0-2.1-.6-3.8-1.9-5.1-1.3-1.3-3.5-1.9-6.7-1.9s-4.2.2-6.3.5c-2.1.3-3.9.7-5.4,1.3l-1.6-10.1c.7-.2,1.6-.5,2.7-.7,1.1-.2,2.3-.5,3.6-.7s2.7-.4,4.1-.5c1.4-.1,2.9-.2,4.3-.2h0ZM457.3,58.4c2.3,0,3.9-.2,4.9-.7.9-.5,1.4-1.3,1.4-2.6s-.6-1.9-1.9-2.7c-1.2-.8-3.1-1.6-5.6-2.6-2-.7-3.7-1.5-5.3-2.3-1.6-.8-3-1.7-4.1-2.8-1.1-1.1-2-2.4-2.6-3.9s-.9-3.3-.9-5.5c0-4.2,1.5-7.4,4.6-9.8,3.1-2.4,7.3-3.6,12.7-3.6s5.3.2,7.7.7c2.5.5,4.4,1,5.9,1.6l-2.2,9.8c-1.5-.5-3-.9-4.8-1.3-1.7-.4-3.6-.6-5.8-.6-3.9,0-5.9,1.1-5.9,3.3s0,.9.2,1.3c.2.4.5.8,1,1.1s1.2.8,2.1,1.2c.9.4,2,.9,3.3,1.4,2.7,1,5,2,6.8,3,1.8,1,3.2,2.1,4.2,3.2,1,1.2,1.8,2.4,2.2,3.8.4,1.4.6,3,.6,4.9,0,4.4-1.6,7.7-4.9,9.9-3.3,2.2-7.9,3.4-13.9,3.4s-7.2-.3-9.8-1-4.4-1.2-5.4-1.7l2.1-10.2c2.1.8,4.3,1.5,6.6,2s4.5.7,6.6.7h0Z"/>
    <g>
      <path class="st0" d="M86.5,96.3c.2,1.8,0,3.6-.8,5.3-2.4,6.1-9.3,9.2-15.4,6.8-6.1-2.4-9.2-9.3-6.8-15.4,2.3-5.9,8.8-8.9,14.7-7.1,4.8-4.3,9-9.8,12.1-16.2,10-20.3,5.8-42.2-9.4-48.9-9.5-4.2-21.1-1.5-30.9,6.1h0c-9.1,1-17.4,3.6-24.5,7.2v-.2C41.6,10,68.6-6.1,90.1,2.2c21.5,8.3,29.1,40.2,14.4,70-4.7,9.4-10.9,17.6-18,24.1h0Z"/>
      <path class="st3" d="M83.6,30.2c1.4-1,3.1-1.7,5-2,6.5-1,12.6,3.4,13.6,10,1,6.5-3.4,12.6-10,13.6-6.3,1-12.1-3.1-13.5-9.2-6.1-2-12.9-2.9-20.1-2.4-22.6,1.4-39.4,16-37.7,32.6,1.1,10.4,9.3,19,20.8,23.7h0c5.4,7.4,11.8,13.3,18.5,17.6,0,0-.2,0-.2,0C31.3,112.2,3.9,96.9.3,74.2-3.2,51.4,20.5,28.8,53.8,26.7c10.5-.7,20.7.6,29.8,3.5h0Z"/>
      <path class="st2" d="M27.9,65.8c-1.6-.7-3.1-1.9-4.2-3.3-4.1-5.1-3.3-12.6,1.8-16.8,5.1-4.1,12.6-3.3,16.8,1.8,4,4.9,3.4,12.1-1.3,16.3,1.3,6.3,4,12.6,7.9,18.6,3.9,5.9,8.7,10.7,13.9,14.2-.3,5,2.6,9.9,7.6,11.8,5.7,2.2,12-.2,14.8-5.5,3.9-.5,7.5-1.8,10.7-4.2,8.4-6.1,11.9-17.5,10.2-29.8h0c3.7-8.4,5.6-16.9,6-24.8v.2c12.9,25.8,13.4,57.3-4.5,71.7-18,14.4-49.4,5.2-67.8-22.5-5.8-8.8-9.8-18.3-11.9-27.6h0Z"/>
      <path class="st1" d="M93.8,31c1.5.4,2.7,1.2,3.4,2.1.8.9,1.2,1.8,1,2.4-.2.5-.8.6-1.8.4-1-.2-2.1-1.2-3.6-1.6-1.5-.4-3-.1-3.9-.5-.9-.3-1.5-.7-1.3-1.3.2-.5.9-1.2,2.1-1.5,1.1-.4,2.6-.4,4,0h0Z"/>
      <path class="st1" d="M36.3,45.9c1.5.4,2.7,1.2,3.4,2.1.8.9,1.2,1.8,1,2.4-.2.5-.8.6-1.8.4-1-.2-2.1-1.2-3.6-1.6-1.5-.4-3-.1-3.9-.5s-1.5-.7-1.3-1.3c.2-.5.9-1.2,2.1-1.5,1.1-.4,2.6-.4,4,0h0Z"/>
      <path class="st1" d="M77.1,87.9c1.5.4,2.7,1.2,3.4,2.1.8.9,1.2,1.8,1,2.4-.2.5-.8.6-1.8.4-1-.2-2.1-1.2-3.6-1.6-1.5-.4-3-.1-3.9-.5-.9-.3-1.5-.7-1.3-1.3.2-.5.9-1.2,2.1-1.5,1.1-.4,2.6-.4,4,0h0Z"/>
    </g>
    <path class="st4" d="M148.1,102.8l.7,4.3h1.3l-2.2-13h-1.8l-2.1,13h1.3l.7-4.3h2.2ZM146,101.7c.4-2.5.9-5.4.9-6.4h0c.1,1.2.4,3.4,1,6.4h-1.9ZM156.8,107.1h4.4l.2-1.1h-3.3v-11.9h-1.3v13h0ZM167.6,94.1v13h1.3v-13h-1.3ZM179.8,102.8l.7,4.3h1.3l-2.2-13h-1.8l-2.1,13h1.3l.7-4.3h2.2ZM177.7,101.7c.4-2.5.9-5.4.9-6.4h0c.1,1.2.4,3.4,1,6.4h-1.9ZM189.6,107.1v-4.9c0-2.4,0-4.5-.1-6.1h0c0,.4.2.9.3,1.5l2.6,9.4h1.4v-13h-1.2v4.9c0,2.1,0,4,0,5.7h0c0-.5-.2-1.3-.5-2.3l-2.3-8.3h-1.5v13h1.2,0ZM200.6,107.1h5.2l.2-1.1h-3.9l3.9-10.9v-.9h-5v1.2h3.6l-3.9,11v.8h0ZM216.4,102.8l.7,4.3h1.3l-2.2-13h-1.8l-2.1,13h1.3l.7-4.3h2.2ZM214.3,101.7c.4-2.5.9-5.4.9-6.4h0c.1,1.2.4,3.4,1,6.4h-1.9ZM224.9,103.5v.7c0,1.7.6,3.1,2.6,3.1s2.6-1.7,2.6-3.5-.6-2.9-2.3-4.2c-1.2-.9-1.5-1.4-1.5-2.7s.2-1.9,1.2-1.9,1.2.7,1.2,1.9v.5h1.3v-.6c0-1.7-.5-2.9-2.4-2.9-2,0-2.5,1.5-2.5,3.2s.7,2.6,2.1,3.6c1.4,1.1,1.7,1.7,1.7,3.2s-.4,2.2-1.4,2.2-1.4-.7-1.4-2v-.7h-1.3,0ZM247.3,107.1v-4.8c0-.2,0-.3,0-.4l2.4-7.8h-1.3c-.6,2.3-1.5,5.3-1.7,6.4h0c-.2-1.2-1.1-4-1.7-6.4h-1.4l2.4,7.8c0,0,0,.2,0,.3v4.9h1.3,0ZM264.9,107.1v-4.9c0-2.4,0-4.5-.1-6.1h0c0,.4.2.9.3,1.5l2.6,9.4h1.4v-13h-1.2v4.9c0,2.1,0,4,0,5.7h0c0-.5-.2-1.3-.5-2.3l-2.3-8.3h-1.5v13h1.2,0ZM280.9,99.6h-2.9v-4.3h3.1v-1.2h-4.3v13h4.4l.2-1.1h-3.3v-5.3h2.9v-1.1h0ZM293.1,100h-2.8v1.1h1.5v2.1c0,1.8-.2,2.9-1.5,2.9s-1.3-.9-1.3-2.2v-6.7c0-1.6.5-2.2,1.4-2.2s1.4,1.1,1.4,2.1v.3h1.3v-.3c0-1.7-.4-3.2-2.6-3.2s-2.7,1.3-2.7,3.4v6.6c0,2,.6,3.4,2.4,3.4s1.6-.3,1.9-1.3c0,.3,0,1,0,1.2h1v-7.1h0ZM303,93.9c-1.8,0-2.8,1.2-2.8,3.3v6.7c0,2.1.7,3.4,2.7,3.4s2.8-1.2,2.8-3.4v-6.7c0-2-.8-3.3-2.7-3.3h0ZM303,95.1c1,0,1.5.7,1.5,2.2v6.7c0,1.6-.5,2.2-1.5,2.2s-1.5-.6-1.5-2.2v-6.8c0-1.5.5-2.1,1.5-2.1h0ZM316.5,103.4v.5c0,1.3-.2,2.2-1.3,2.2s-1.3-.9-1.3-2.3v-6.7c0-1.2.3-2.1,1.3-2.1s1.3,1,1.3,2v.6h1.3v-.5c0-1.7-.4-3.2-2.5-3.2s-2.6,1.1-2.6,3.2v6.6c0,1.9.3,3.5,2.6,3.5s2.6-1.8,2.6-3.4v-.4s-1.3,0-1.3,0ZM324.7,94.1v13h1.3v-13h-1.3ZM335.9,93.9c-1.8,0-2.8,1.2-2.8,3.3v6.7c0,2.1.7,3.4,2.7,3.4s2.8-1.2,2.8-3.4v-6.7c0-2-.8-3.3-2.7-3.3h0ZM335.9,95.1c1,0,1.5.7,1.5,2.2v6.7c0,1.6-.5,2.2-1.5,2.2s-1.5-.6-1.5-2.2v-6.8c0-1.5.5-2.1,1.5-2.1h0ZM345.3,103.5v.7c0,1.7.6,3.1,2.6,3.1s2.6-1.7,2.6-3.5-.6-2.9-2.3-4.2c-1.2-.9-1.5-1.4-1.5-2.7s.3-1.9,1.2-1.9,1.2.7,1.2,1.9v.5h1.3v-.6c0-1.7-.5-2.9-2.4-2.9-2,0-2.5,1.5-2.5,3.2s.7,2.6,2.1,3.6c1.4,1.1,1.7,1.7,1.7,3.2s-.4,2.2-1.4,2.2-1.4-.7-1.4-2v-.7h-1.3,0ZM369.2,99.6h-2.9v-4.3h3.1v-1.2h-4.3v13h4.4l.2-1.1h-3.3v-5.3h2.9v-1.1h0ZM377.5,107.1v-4.9c0-2.4,0-4.5-.1-6.1h0c0,.4.2.9.3,1.5l2.6,9.4h1.4v-13h-1.2v4.9c0,2.1,0,4,0,5.7h0c0-.5-.2-1.3-.5-2.3l-2.3-8.3h-1.5v13h1.2,0ZM396.1,103.5v.7c0,1.7.6,3.1,2.6,3.1s2.6-1.7,2.6-3.5-.6-2.9-2.3-4.2c-1.2-.9-1.5-1.4-1.5-2.7s.3-1.9,1.2-1.9,1.2.7,1.2,1.9v.5h1.3v-.6c0-1.7-.5-2.9-2.4-2.9-2,0-2.5,1.5-2.5,3.2s.7,2.6,2.1,3.6c1.4,1.1,1.7,1.7,1.7,3.2s-.4,2.2-1.4,2.2-1.4-.7-1.4-2v-.7h-1.3,0ZM412.5,99.6h-2.9v-4.3h3.1v-1.2h-4.3v13h4.4l.2-1.1h-3.3v-5.3h2.9v-1.1h0ZM424.7,100h-2.8v1.1h1.5v2.1c0,1.8-.2,2.9-1.5,2.9s-1.3-.9-1.3-2.2v-6.7c0-1.6.5-2.2,1.4-2.2s1.4,1.1,1.4,2.1v.3h1.3v-.3c0-1.7-.4-3.2-2.6-3.2s-2.7,1.3-2.7,3.4v6.6c0,2,.6,3.4,2.4,3.4s1.6-.3,1.9-1.3c0,.3,0,1,0,1.2h1v-7.1h0ZM431.9,94.1v10.2c0,2,.9,3,2.6,3s2.7-1.1,2.7-3.1v-10.1h-1.3v10.2c0,1.2-.4,1.9-1.4,1.9s-1.4-.8-1.4-1.9v-10.2h-1.3,0ZM444.7,107.1h1.3v-6.1h.9c1.3,0,1.6.5,1.6,2.2s0,3.1.1,3.9h1.2c-.2-.8-.1-2.9-.1-4,0-1.7-.4-2.4-1.2-2.7.8-.3,1.3-1,1.3-2.7v-.6c0-2.1-.9-3-2.9-3h-2.2v13h0ZM445.9,95.2h.8c1.3,0,1.7.7,1.7,2v.6c0,1.4-.3,2.2-1.6,2.2h-.9v-4.7h0ZM459.4,93.9c-1.8,0-2.8,1.2-2.8,3.3v6.7c0,2.1.7,3.4,2.7,3.4s2.8-1.2,2.8-3.4v-6.7c0-2-.8-3.3-2.7-3.3h0ZM459.3,95.1c1,0,1.5.7,1.5,2.2v6.7c0,1.6-.5,2.2-1.5,2.2s-1.5-.6-1.5-2.2v-6.8c0-1.5.5-2.1,1.5-2.1h0ZM468.7,103.5v.7c0,1.7.6,3.1,2.6,3.1s2.6-1.7,2.6-3.5-.6-2.9-2.3-4.2c-1.2-.9-1.5-1.4-1.5-2.7s.3-1.9,1.2-1.9,1.2.7,1.2,1.9v.5h1.3v-.6c0-1.7-.5-2.9-2.4-2.9-2,0-2.5,1.5-2.5,3.2s.7,2.6,2.1,3.6c1.4,1.1,1.7,1.7,1.7,3.2s-.4,2.2-1.4,2.2-1.4-.7-1.4-2v-.7h-1.3,0Z"/>
  </g>
</svg>